<svg xmlns="http://www.w3.org/2000/svg" width="54" height="54" viewBox="0 0 54 54">
  <g id="我的账单" transform="translate(-9 -302)">
    <rect id="矩形_21" data-name="矩形 21" width="54" height="54" rx="4" transform="translate(9 302)" fill="none"/>
    <g id="组_69" data-name="组 69" transform="translate(-122.724 58.254)">
      <path id="路径_124" data-name="路径 124" d="M165.448,270.9V261a.8.8,0,0,1,.8-.8h0a.8.8,0,0,1,.8.8v10.22h-1.6Z" fill="none" stroke="#48b0ff" stroke-miterlimit="10" stroke-width="1"/>
      <path id="路径_125" data-name="路径 125" d="M168.615,274.064l-.727-1.079c-.035-.08-.04-.018-.053,0l-.766,1.118a.024.024,0,0,1-.024-.024V261" fill="none" stroke="#48b0ff" stroke-miterlimit="10" stroke-width="1"/>
      <path id="路径_126" data-name="路径 126" d="M166.135,260.206l8.2-.008a.753.753,0,0,1,.753.753v13.128a.024.024,0,0,1-.024.024l-.771-1.078a.032.032,0,0,0-.052,0l-.729,1.041a.032.032,0,0,1-.052,0L172.679,273a.032.032,0,0,0-.052,0l-.729,1.068a.033.033,0,0,1-.053,0l-.795-1.056a.032.032,0,0,0-.052,0l-.715,1.053a.032.032,0,0,1-.053,0L169.462,273a.033.033,0,0,0-.053,0l-.741,1.066a.032.032,0,0,1-.053,0" fill="none" stroke="#48b0ff" stroke-miterlimit="10" stroke-width="1"/>
      <line id="直线_42" data-name="直线 42" x2="6.083" transform="translate(168.01 262.076)" fill="none" stroke="#48b0ff" stroke-miterlimit="10" stroke-width="1"/>
      <line id="直线_43" data-name="直线 43" x2="6.083" transform="translate(168.01 264.693)" fill="none" stroke="#48b0ff" stroke-miterlimit="10" stroke-width="1"/>
      <circle id="椭圆_17" data-name="椭圆 17" cx="2.275" cy="2.275" r="2.275" transform="translate(168.763 267.175)" fill="none" stroke="#48b0ff" stroke-miterlimit="10" stroke-width="1"/>
      <path id="路径_127" data-name="路径 127" d="M171.683,269.892a.508.508,0,0,1-.509.466v.261h-.291v-.259a2.812,2.812,0,0,1-.5-.125l.087-.342a1.919,1.919,0,0,0,.454.123c.205.024.344-.018.357-.167.029-.261-.886-.307-.877-.778a.484.484,0,0,1,.488-.517v-.272h.291v.26a1.036,1.036,0,0,1,.423.093l-.081.322a1.142,1.142,0,0,0-.415-.093c-.1,0-.314,0-.322.14,0,.241.4.253.537.31a.7.7,0,0,1,.234.149.465.465,0,0,1,.122.429Z" fill="#fff"/>
      <rect id="矩形_50" data-name="矩形 50" width="15.141" height="7.353" rx="0.102" transform="translate(145.258 257.746)" fill="none" stroke="#48b0ff" stroke-miterlimit="10" stroke-width="1.2"/>
      <circle id="椭圆_18" data-name="椭圆 18" cx="1.018" cy="1.018" r="1.018" transform="translate(148.526 259.627)" fill="none" stroke="#48b0ff" stroke-miterlimit="10" stroke-width="1.2"/>
      <circle id="椭圆_19" data-name="椭圆 19" cx="1.018" cy="1.018" r="1.018" transform="translate(155.19 259.627)" fill="none" stroke="#48b0ff" stroke-miterlimit="10" stroke-width="1.2"/>
      <path id="路径_128" data-name="路径 128" d="M151.285,262.5a1.867,1.867,0,0,0,3.244.12" fill="none" stroke="#48b0ff" stroke-linecap="round" stroke-miterlimit="10" stroke-width="1.2"/>
      <line id="直线_44" data-name="直线 44" y1="4.132" transform="translate(152.907 265.099)" fill="none" stroke="#48b0ff" stroke-miterlimit="10" stroke-width="1.2"/>
      <rect id="矩形_51" data-name="矩形 51" width="13.58" height="13.58" rx="0.1" transform="translate(146.165 269.231)" fill="none" stroke="#48b0ff" stroke-miterlimit="10" stroke-width="1.2"/>
      <path id="路径_129" data-name="路径 129" d="M159.745,270.469l4.465,4.311,3.49-4.311" fill="none" stroke="#48b0ff" stroke-linecap="round" stroke-miterlimit="10" stroke-width="1.2"/>
      <path id="路径_130" data-name="路径 130" d="M146.165,270.469l-4.441,4.586,4.3,3.986-1.916,2.532" fill="none" stroke="#48b0ff" stroke-linecap="round" stroke-miterlimit="10" stroke-width="1.2"/>
      <g id="组_68" data-name="组 68">
        <rect id="矩形_52" data-name="矩形 52" width="4.92" height="4.311" rx="0.196" transform="translate(148.327 272.914)" fill="none" stroke="#48b0ff" stroke-miterlimit="10" stroke-width="1.2"/>
        <g id="组_67" data-name="组 67">
          <line id="直线_45" data-name="直线 45" x2="2.109" transform="translate(155.319 273.663)" fill="none" stroke="#48b0ff" stroke-linecap="round" stroke-miterlimit="10" stroke-width="1.2"/>
          <line id="直线_46" data-name="直线 46" x2="2.109" transform="translate(155.473 276.476)" fill="none" stroke="#48b0ff" stroke-linecap="round" stroke-miterlimit="10" stroke-width="1.2"/>
        </g>
      </g>
      <line id="直线_47" data-name="直线 47" x2="9.104" transform="translate(148.478 280.395)" fill="none" stroke="#48b0ff" stroke-linecap="round" stroke-miterlimit="10" stroke-width="1.2"/>
    </g>
  </g>
</svg>
