<svg xmlns="http://www.w3.org/2000/svg" width="54" height="54" viewBox="0 0 54 54">
  <g id="交易账单" transform="translate(-9 -302)">
    <rect id="矩形_21" data-name="矩形 21" width="54" height="54" rx="4" transform="translate(9 302)" fill="none"/>
    <g id="组_25" data-name="组 25" transform="translate(12.69 356.499)">
      <g id="组_17" data-name="组 17">
        <path id="路径_36" data-name="路径 36" d="M23.769-27.391" fill="none" stroke="#48b0ff" stroke-linecap="round" stroke-miterlimit="10" stroke-width="1"/>
      </g>
      <g id="组_18" data-name="组 18">
        <path id="路径_37" data-name="路径 37" d="M23.769-27.391" fill="none" stroke="#48b0ff" stroke-miterlimit="10" stroke-width="1"/>
      </g>
      <g id="组_23" data-name="组 23">
        <g id="组_19" data-name="组 19">
          <path id="路径_38" data-name="路径 38" d="M9.145-29.755a.286.286,0,0,1-.058-.006.257.257,0,0,1-.191-.307,16.209,16.209,0,0,1,4.246-8A15.052,15.052,0,0,1,23.851-42.5,15.059,15.059,0,0,1,34.568-38.06a15.1,15.1,0,0,1,4.08,7.431.255.255,0,0,1-.194.3.249.249,0,0,1-.3-.195A14.58,14.58,0,0,0,34.207-37.7a14.548,14.548,0,0,0-10.356-4.29A14.544,14.544,0,0,0,13.5-37.7a15.692,15.692,0,0,0-4.1,7.746A.256.256,0,0,1,9.145-29.755Z" stroke="#48b0ff" stroke-miterlimit="10" stroke-width="1.2"/>
        </g>
        <g id="组_20" data-name="组 20">
          <path id="路径_39" data-name="路径 39" d="M23.851-12.187a15.058,15.058,0,0,1-10.716-4.439,15.1,15.1,0,0,1-4.081-7.431.257.257,0,0,1,.194-.305.253.253,0,0,1,.305.195A14.591,14.591,0,0,0,13.5-16.988,14.544,14.544,0,0,0,23.851-12.7a14.548,14.548,0,0,0,10.356-4.29A15.569,15.569,0,0,0,38.3-24.636a.256.256,0,0,1,.3-.2.254.254,0,0,1,.2.3,16.091,16.091,0,0,1-4.231,7.905A15.059,15.059,0,0,1,23.851-12.187Z" stroke="#48b0ff" stroke-miterlimit="10" stroke-width="1.2"/>
        </g>
        <g id="组_21" data-name="组 21">
          <path id="路径_40" data-name="路径 40" d="M9.275-29.79l-.359-.1L7.323-34.737a.256.256,0,0,1,.163-.323.254.254,0,0,1,.322.163l1.458,4.436" stroke="#48b0ff" stroke-miterlimit="10" stroke-width="1.2"/>
        </g>
        <g id="组_22" data-name="组 22">
          <path id="路径_41" data-name="路径 41" d="M38.408-24.785l.38.1.04.138,1.389,4.691a.254.254,0,0,1-.172.317.262.262,0,0,1-.072.011.257.257,0,0,1-.245-.184L38.41-24.156" stroke="#48b0ff" stroke-miterlimit="10" stroke-width="1.2"/>
        </g>
      </g>
      <path id="路径_42" data-name="路径 42" d="M23.756-32.869a1.517,1.517,0,0,1-1.516-1.514A1.517,1.517,0,0,1,23.756-35.9a1.517,1.517,0,0,1,1.514,1.515A1.516,1.516,0,0,1,23.756-32.869Zm0-2.666A1.153,1.153,0,0,0,22.6-34.383a1.153,1.153,0,0,0,1.152,1.151,1.152,1.152,0,0,0,1.15-1.151A1.152,1.152,0,0,0,23.756-35.535Z" stroke="#48b0ff" stroke-miterlimit="10" stroke-width="1"/>
      <g id="组_24" data-name="组 24">
        <rect id="矩形_22" data-name="矩形 22" width="0.364" height="1.642" transform="translate(23.574 -32.91)" stroke="#48b0ff" stroke-miterlimit="10" stroke-width="1"/>
      </g>
      <path id="路径_43" data-name="路径 43" d="M30.686-20.612H16.814A.384.384,0,0,1,16.431-21v-10a.384.384,0,0,1,.383-.383H30.686a.384.384,0,0,1,.384.383v10A.384.384,0,0,1,30.686-20.612Zm-13.872-10.4L16.8-21l13.891.02a.019.019,0,0,0,.02-.02v-10Z" stroke="#48b0ff" stroke-miterlimit="10" stroke-width="1"/>
      <path id="路径_44" data-name="路径 44" d="M20.858-25.88A1.517,1.517,0,0,1,19.342-27.4a1.517,1.517,0,0,1,1.516-1.514A1.516,1.516,0,0,1,22.373-27.4,1.517,1.517,0,0,1,20.858-25.88Zm0-2.666A1.153,1.153,0,0,0,19.706-27.4a1.153,1.153,0,0,0,1.152,1.152A1.153,1.153,0,0,0,22.009-27.4,1.153,1.153,0,0,0,20.858-28.546Z" stroke="#48b0ff" stroke-miterlimit="10" stroke-width="1"/>
      <path id="路径_45" data-name="路径 45" d="M26.579-25.88A1.517,1.517,0,0,1,25.064-27.4a1.516,1.516,0,0,1,1.515-1.514A1.516,1.516,0,0,1,28.094-27.4,1.517,1.517,0,0,1,26.579-25.88Zm0-2.666A1.153,1.153,0,0,0,25.428-27.4a1.152,1.152,0,0,0,1.151,1.152A1.152,1.152,0,0,0,27.73-27.4,1.153,1.153,0,0,0,26.579-28.546Z" stroke="#48b0ff" stroke-miterlimit="10" stroke-width="1"/>
      <path id="路径_46" data-name="路径 46" d="M22.344-23.958a.435.435,0,0,0-.435.435.435.435,0,0,0,.435.435h2.813a.435.435,0,0,0,.435-.435.435.435,0,0,0-.435-.435Z" stroke="#48b0ff" stroke-miterlimit="10" stroke-width="1"/>
      <path id="路径_47" data-name="路径 47" d="M16.588-24.058H15.249a.393.393,0,0,1-.394-.393v-2.86a.394.394,0,0,1,.394-.394h1.339v-.363H15.249a.758.758,0,0,0-.757.757v2.86a.758.758,0,0,0,.757.756h1.339Z" stroke="#48b0ff" stroke-miterlimit="10" stroke-width="1"/>
      <path id="路径_48" data-name="路径 48" d="M32.282-28.068H30.935v.363h1.347a.4.4,0,0,1,.4.4v2.844a.4.4,0,0,1-.4.4H30.935v.363h1.347a.766.766,0,0,0,.766-.764V-27.3A.766.766,0,0,0,32.282-28.068Z" stroke="#48b0ff" stroke-miterlimit="10" stroke-width="1"/>
    </g>
  </g>
</svg>
