<svg xmlns="http://www.w3.org/2000/svg" width="54" height="54" viewBox="0 0 54 54">
  <g id="交易所" transform="translate(-9 -302)">
    <rect id="矩形_21" data-name="矩形 21" width="54" height="54" rx="4" transform="translate(9 302)" fill="none"/>
    <g id="组_12" data-name="组 12" transform="translate(-190.491 296.066)">
      <g id="组_9" data-name="组 9" transform="translate(206.491 20.43)">
        <path id="路径_15" data-name="路径 15" d="M219.115,23.2" transform="translate(-208.617 -20.896)" fill="none" stroke="#48b0ff" stroke-miterlimit="10" stroke-width="1.3"/>
        <path id="路径_16" data-name="路径 16" d="M219.115,50.069" transform="translate(-208.617 -25.421)" fill="none" stroke="#48b0ff" stroke-miterlimit="10" stroke-width="1.3"/>
        <path id="路径_17" data-name="路径 17" d="M221.011,50.069" transform="translate(-208.936 -25.421)" fill="none" stroke="#48b0ff" stroke-miterlimit="10" stroke-width="1.3"/>
        <path id="路径_18" data-name="路径 18" d="M218.377,42.114V48.73h-5.908V42.114" transform="translate(-207.498 -24.081)" fill="none" stroke="#48b0ff" stroke-miterlimit="10" stroke-width="1.3"/>
        <path id="路径_19" data-name="路径 19" d="M219.573,42.114" transform="translate(-208.694 -24.081)" fill="none" stroke="#48b0ff" stroke-miterlimit="10" stroke-width="1.3"/>
        <path id="路径_20" data-name="路径 20" d="M212.468,42.114" transform="translate(-207.497 -24.081)" fill="none" stroke="#48b0ff" stroke-miterlimit="10" stroke-width="1.3"/>
        <path id="路径_21" data-name="路径 21" d="M209.657,47.3V40.99a1.66,1.66,0,0,1,1.66-1.66H213.7V37.418" transform="translate(-207.024 -23.291)" fill="none" stroke="#48b0ff" stroke-miterlimit="10" stroke-width="1.3"/>
        <path id="路径_22" data-name="路径 22" d="M224.6,42.97h-2.59l-.3-1.98a1.689,1.689,0,0,0-1.66-1.66h-2.382V37.418" transform="translate(-208.373 -23.291)" fill="none" stroke="#48b0ff" stroke-miterlimit="10" stroke-width="1.3"/>
        <line id="直线_15" data-name="直线 15" y2="3.625" transform="translate(7.744)" fill="none" stroke="#48b0ff" stroke-miterlimit="10" stroke-width="1.3"/>
        <g id="组_8" data-name="组 8" transform="translate(3.418 6.662)">
          <circle id="椭圆_1" data-name="椭圆 1" cx="1.34" cy="1.34" r="1.34" fill="none" stroke="#48b0ff" stroke-miterlimit="10" stroke-width="1.3"/>
          <circle id="椭圆_2" data-name="椭圆 2" cx="1.34" cy="1.34" r="1.34" transform="translate(6.233)" fill="none" stroke="#48b0ff" stroke-miterlimit="10" stroke-width="1.3"/>
        </g>
        <path id="路径_23" data-name="路径 23" d="M221.258,31.567V34.8a.516.516,0,0,1-.516.516h-12.75a.516.516,0,0,1-.516-.516V31.567h-.664a.319.319,0,0,1-.319-.319V29.182a.32.32,0,0,1,.319-.32h.664V27.7a2.752,2.752,0,0,1,2.753-2.752h8.278a2.752,2.752,0,0,1,2.753,2.752v1.163h.664a.32.32,0,0,1,.319.32v2.066a.319.319,0,0,1-.319.319Z" transform="translate(-206.491 -21.191)" fill="none" stroke="#48b0ff" stroke-miterlimit="10" stroke-width="1.3"/>
        <path id="路径_24" data-name="路径 24" d="M215.6,35.673a1.68,1.68,0,0,0,1.77-1.561h-3.54A1.681,1.681,0,0,0,215.6,35.673Z" transform="translate(-207.727 -22.734)" fill="#48b0ff"/>
      </g>
      <g id="组_11" data-name="组 11" transform="translate(229.419 20.43)">
        <path id="路径_25" data-name="路径 25" d="M241.374,23.2" transform="translate(-235.293 -20.896)" fill="none" stroke="#48b0ff" stroke-miterlimit="10" stroke-width="1.3"/>
        <path id="路径_26" data-name="路径 26" d="M241.374,50.069" transform="translate(-235.293 -25.421)" fill="none" stroke="#48b0ff" stroke-miterlimit="10" stroke-width="1.3"/>
        <path id="路径_27" data-name="路径 27" d="M239.477,50.069" transform="translate(-234.974 -25.421)" fill="none" stroke="#48b0ff" stroke-miterlimit="10" stroke-width="1.3"/>
        <path id="路径_28" data-name="路径 28" d="M240.916,42.114V48.73h5.908V42.114" transform="translate(-235.216 -24.081)" fill="none" stroke="#48b0ff" stroke-miterlimit="10" stroke-width="1.3"/>
        <path id="路径_29" data-name="路径 29" d="M240.916,42.114" transform="translate(-235.216 -24.081)" fill="none" stroke="#48b0ff" stroke-miterlimit="10" stroke-width="1.3"/>
        <path id="路径_30" data-name="路径 30" d="M248.021,42.114" transform="translate(-236.413 -24.081)" fill="none" stroke="#48b0ff" stroke-miterlimit="10" stroke-width="1.3"/>
        <path id="路径_31" data-name="路径 31" d="M250.014,47.3V40.99a1.66,1.66,0,0,0-1.66-1.66h-2.382V37.418" transform="translate(-236.068 -23.291)" fill="none" stroke="#48b0ff" stroke-miterlimit="10" stroke-width="1.3"/>
        <path id="路径_32" data-name="路径 32" d="M234.062,42.97H237l.3-1.98a1.689,1.689,0,0,1,1.659-1.66h2.383V37.418" transform="translate(-234.062 -23.291)" fill="none" stroke="#48b0ff" stroke-miterlimit="10" stroke-width="1.3"/>
        <line id="直线_16" data-name="直线 16" y2="3.625" transform="translate(8.835)" fill="none" stroke="#48b0ff" stroke-miterlimit="10" stroke-width="1.3"/>
        <g id="组_10" data-name="组 10" transform="translate(4.247 6.662)">
          <circle id="椭圆_3" data-name="椭圆 3" cx="1.34" cy="1.34" r="1.34" transform="translate(6.233)" fill="none" stroke="#48b0ff" stroke-miterlimit="10" stroke-width="1.3"/>
          <circle id="椭圆_4" data-name="椭圆 4" cx="1.34" cy="1.34" r="1.34" fill="none" stroke="#48b0ff" stroke-miterlimit="10" stroke-width="1.3"/>
        </g>
        <path id="路径_33" data-name="路径 33" d="M236.042,31.567V34.8a.516.516,0,0,0,.516.516h12.75a.516.516,0,0,0,.516-.516V31.567h.664a.319.319,0,0,0,.319-.319V29.182a.32.32,0,0,0-.319-.32h-.664V27.7a2.752,2.752,0,0,0-2.753-2.752h-8.278a2.752,2.752,0,0,0-2.753,2.752v1.163h-.664a.32.32,0,0,0-.319.32v2.066a.319.319,0,0,0,.319.319Z" transform="translate(-234.23 -21.191)" fill="none" stroke="#48b0ff" stroke-miterlimit="10" stroke-width="1.3"/>
        <path id="路径_34" data-name="路径 34" d="M244.169,35.673a1.681,1.681,0,0,1-1.77-1.561h3.541A1.681,1.681,0,0,1,244.169,35.673Z" transform="translate(-235.466 -22.734)" fill="#48b0ff"/>
      </g>
      <circle id="椭圆_5" data-name="椭圆 5" cx="3.282" cy="3.282" r="3.282" transform="translate(222.854 36.827)" fill="none" stroke="#48b0ff" stroke-linecap="round" stroke-miterlimit="10" stroke-width="1.3"/>
      <path id="路径_35" data-name="路径 35" d="M229.44,43.236a.327.327,0,0,1-.091-.226.317.317,0,0,1,.109-.245.6.6,0,0,1,.326-.122v.752A.877.877,0,0,1,229.44,43.236Zm.636.75a1.109,1.109,0,0,1,.363.158.373.373,0,0,1,.091.245.28.28,0,0,1-.128.245.67.67,0,0,1-.326.122v-.771Zm-.018,1.52v-.314a1.153,1.153,0,0,0,.726-.262.783.783,0,0,0,.273-.61.675.675,0,0,0-.235-.578,1.6,1.6,0,0,0-.745-.314h-.017v-.8a1.409,1.409,0,0,1,.635.245l.293-.384a1.82,1.82,0,0,0-.927-.314v-.21h-.273v.21a1.133,1.133,0,0,0-.692.262.781.781,0,0,0-.273.61.657.657,0,0,0,.235.558,1.75,1.75,0,0,0,.726.3v.82a1.535,1.535,0,0,1-.763-.368l-.327.368a1.908,1.908,0,0,0,1.092.472v.314Z" transform="translate(-3.739 -3.626)" fill="#48b0ff"/>
    </g>
  </g>
</svg>
