<svg xmlns="http://www.w3.org/2000/svg" width="54" height="54" viewBox="0 0 54 54">
  <g id="交易账户" transform="translate(-9 -302)">
    <rect id="矩形_21" data-name="矩形 21" width="54" height="54" rx="4" transform="translate(9 302)" fill="none"/>
    <g id="组_60" data-name="组 60" transform="translate(-55.183 59.35)">
      <rect id="矩形_36" data-name="矩形 36" width="16.606" height="10.848" rx="0.707" transform="translate(83.142 257.886)" fill="none" stroke="#48b0ff" stroke-miterlimit="10" stroke-width="1.2"/>
      <line id="直线_26" data-name="直线 26" y1="1.635" transform="translate(91.464 256.159)" fill="none" stroke="#48b0ff" stroke-miterlimit="10" stroke-width="1.2"/>
      <circle id="椭圆_11" data-name="椭圆 11" cx="1.12" cy="1.12" r="1.12" transform="translate(90.344 253.65)" fill="none" stroke="#48b0ff" stroke-miterlimit="10" stroke-width="1.2"/>
      <line id="直线_27" data-name="直线 27" y2="2.23" transform="translate(90.327 268.734)" fill="none" stroke="#48b0ff" stroke-miterlimit="10" stroke-width="1.2"/>
      <line id="直线_28" data-name="直线 28" y2="2.23" transform="translate(92.708 268.734)" fill="none" stroke="#48b0ff" stroke-miterlimit="10" stroke-width="1.2"/>
      <path id="路径_104" data-name="路径 104" d="M88.087,281.532H86.97a.652.652,0,0,1-.652-.652v-9.264a.652.652,0,0,1,.652-.652h9.1a.652.652,0,0,1,.652.652v9.264a.652.652,0,0,1-.652.652H95.036" fill="none" stroke="#48b0ff" stroke-miterlimit="10" stroke-width="1.2"/>
      <g id="组_57" data-name="组 57">
        <line id="直线_29" data-name="直线 29" x2="2.084" transform="translate(84.234 273.098)" fill="none" stroke="#48b0ff" stroke-miterlimit="10" stroke-width="1.2"/>
        <line id="直线_30" data-name="直线 30" x2="2.084" transform="translate(84.234 275.378)" fill="none" stroke="#48b0ff" stroke-miterlimit="10" stroke-width="1.2"/>
        <rect id="矩形_37" data-name="矩形 37" width="3.16" height="10.995" rx="1.347" transform="translate(81.183 271.047)" fill="none" stroke="#48b0ff" stroke-miterlimit="10" stroke-width="1.2"/>
        <path id="路径_105" data-name="路径 105" d="M84.343,280.029h-1.7v-1.243" fill="none" stroke="#48b0ff" stroke-miterlimit="10" stroke-width="1.2"/>
      </g>
      <g id="组_58" data-name="组 58">
        <line id="直线_31" data-name="直线 31" x1="2.084" transform="translate(96.666 273.098)" fill="none" stroke="#48b0ff" stroke-miterlimit="10" stroke-width="1.2"/>
        <line id="直线_32" data-name="直线 32" x1="2.084" transform="translate(96.666 275.378)" fill="none" stroke="#48b0ff" stroke-miterlimit="10" stroke-width="1.2"/>
        <rect id="矩形_38" data-name="矩形 38" width="3.16" height="10.995" rx="1.347" transform="translate(101.801 282.042) rotate(180)" fill="none" stroke="#48b0ff" stroke-miterlimit="10" stroke-width="1.2"/>
        <path id="路径_106" data-name="路径 106" d="M98.641,280.029h1.7v-1.243" fill="none" stroke="#48b0ff" stroke-miterlimit="10" stroke-width="1.2"/>
      </g>
      <g id="组_59" data-name="组 59">
        <line id="直线_33" data-name="直线 33" x2="2.301" transform="translate(92.603 260.986)" fill="none" stroke="#48b0ff" stroke-miterlimit="10" stroke-width="1.2"/>
        <line id="直线_34" data-name="直线 34" y2="2.301" transform="translate(89.137 259.835)" fill="none" stroke="#48b0ff" stroke-miterlimit="10" stroke-width="1.2"/>
        <line id="直线_35" data-name="直线 35" x2="2.301" transform="translate(87.987 260.986)" fill="none" stroke="#48b0ff" stroke-miterlimit="10" stroke-width="1.2"/>
      </g>
      <circle id="椭圆_12" data-name="椭圆 12" cx="3.834" cy="3.834" r="3.834" transform="translate(87.731 279.239)" fill="none" stroke="#48b0ff" stroke-miterlimit="10" stroke-width="1.2"/>
      <circle id="椭圆_13" data-name="椭圆 13" cx="1.614" cy="1.614" r="1.614" transform="translate(89.951 281.458)" fill="none" stroke="#48b0ff" stroke-miterlimit="10" stroke-width="1.2"/>
      <path id="路径_107" data-name="路径 107" d="M94.595,263.944l-1.329,2.741h-3.4l-1.534-2.749" fill="none" stroke="#48b0ff" stroke-miterlimit="10" stroke-width="1.2"/>
    </g>
  </g>
</svg>
