<svg xmlns="http://www.w3.org/2000/svg" width="54" height="54" viewBox="0 0 54 54">
  <g id="积分中心" transform="translate(-9 -302)">
    <rect id="矩形_21" data-name="矩形 21" width="54" height="54" rx="4" transform="translate(9 302)" fill="none"/>
    <g id="组_37" data-name="组 37" transform="translate(-55.35 217.521)">
      <g id="组_28" data-name="组 28">
        <path id="路径_66" data-name="路径 66" d="M94.037,124.743H89A7.15,7.15,0,0,1,81.86,117.6v-2.508A7.15,7.15,0,0,1,89,107.951h5.035a7.15,7.15,0,0,1,7.142,7.142V117.6A7.15,7.15,0,0,1,94.037,124.743ZM89,108.5a6.6,6.6,0,0,0-6.593,6.593V117.6A6.6,6.6,0,0,0,89,124.194h5.035a6.6,6.6,0,0,0,6.593-6.593v-2.508a6.6,6.6,0,0,0-6.593-6.593Z" fill="#48b0ff" stroke="#48b0ff" stroke-miterlimit="10" stroke-width="0.6"/>
      </g>
      <g id="组_29" data-name="组 29">
        <path id="路径_67" data-name="路径 67" d="M94.209,122.432H88.852a4.847,4.847,0,0,1-4.841-4.841v-1.305a4.846,4.846,0,0,1,4.841-4.841h5.357a4.846,4.846,0,0,1,4.841,4.841v1.305A4.847,4.847,0,0,1,94.209,122.432Zm-5.357-10.438a4.3,4.3,0,0,0-4.292,4.292v1.305a4.3,4.3,0,0,0,4.292,4.292h5.357a4.3,4.3,0,0,0,4.292-4.292v-1.305a4.3,4.3,0,0,0-4.292-4.292Z" fill="#48b0ff" stroke="#48b0ff" stroke-miterlimit="10" stroke-width="0.6"/>
      </g>
      <g id="组_30" data-name="组 30">
        <circle id="椭圆_9" data-name="椭圆 9" cx="1.053" cy="1.053" r="1.053" transform="translate(87.056 115.149)" fill="#48b0ff" stroke="#48b0ff" stroke-miterlimit="10" stroke-width="0.3"/>
      </g>
      <g id="组_31" data-name="组 31">
        <circle id="椭圆_10" data-name="椭圆 10" cx="1.053" cy="1.053" r="1.053" transform="translate(93.881 115.149)" fill="#48b0ff" stroke="#48b0ff" stroke-miterlimit="10" stroke-width="0.3"/>
      </g>
      <g id="组_32" data-name="组 32">
        <path id="路径_68" data-name="路径 68" d="M91.531,119.782a2.089,2.089,0,0,1-1.834-1.091.275.275,0,1,1,.483-.262,1.539,1.539,0,0,0,2.694.016.27.27,0,0,1,.373-.105.274.274,0,0,1,.106.373A2.09,2.09,0,0,1,91.531,119.782Z" fill="#48b0ff" stroke="#48b0ff" stroke-miterlimit="10" stroke-width="0.3"/>
      </g>
      <g id="组_33" data-name="组 33">
        <rect id="矩形_28" data-name="矩形 28" width="0.549" height="1.862" transform="translate(91.258 106.17)" fill="#48b0ff" stroke="#48b0ff" stroke-miterlimit="10" stroke-width="0.6"/>
      </g>
      <g id="组_34" data-name="组 34">
        <path id="路径_69" data-name="路径 69" d="M91.52,106.444a1.6,1.6,0,1,1,1.6-1.6A1.6,1.6,0,0,1,91.52,106.444Zm0-2.641a1.046,1.046,0,1,0,1.046,1.046A1.047,1.047,0,0,0,91.52,103.8Z" fill="#48b0ff" stroke="#48b0ff" stroke-miterlimit="10" stroke-width="0.6"/>
      </g>
      <g id="组_35" data-name="组 35">
        <path id="路径_70" data-name="路径 70" d="M100.462,120.769v-.549a2.594,2.594,0,0,0,2.623-2.558v-.97a2.217,2.217,0,0,0-2.215-2.215v-.55a2.768,2.768,0,0,1,2.764,2.765v.97A3.144,3.144,0,0,1,100.462,120.769Z" fill="#48b0ff" stroke="#48b0ff" stroke-miterlimit="10" stroke-width="0.6"/>
      </g>
      <g id="组_36" data-name="组 36">
        <path id="路径_71" data-name="路径 71" d="M82.615,120.769a3.232,3.232,0,0,1-3.265-3.107v-.97a2.768,2.768,0,0,1,2.764-2.765v.55a2.217,2.217,0,0,0-2.215,2.215v.97a2.677,2.677,0,0,0,2.716,2.558Z" fill="#48b0ff" stroke="#48b0ff" stroke-miterlimit="10" stroke-width="0.6"/>
      </g>
      <path id="路径_72" data-name="路径 72" d="M96.69,102.394h.838v1.979l1.8-2.173h-.691a.207.207,0,0,1-.206-.2l-.037-1.814Z" fill="#48b0ff" stroke="#48b0ff" stroke-miterlimit="10" stroke-width="0.6"/>
      <path id="路径_73" data-name="路径 73" d="M84.064,102.394H84.9v1.979l1.8-2.173h-.69a.207.207,0,0,1-.206-.2l-.037-1.814Z" fill="#48b0ff" stroke="#48b0ff" stroke-miterlimit="10" stroke-width="0.6"/>
      <path id="路径_74" data-name="路径 74" d="M91.312,101.094v0Z" fill="#48b0ff" stroke="#48b0ff" stroke-miterlimit="10" stroke-width="0.6"/>
      <path id="路径_75" data-name="路径 75" d="M90.647,98.907h.837v1.979l1.8-2.173h-.69a.205.205,0,0,1-.206-.2L92.35,96.7Z" fill="#48b0ff" stroke="#48b0ff" stroke-miterlimit="10" stroke-width="0.6"/>
      <path id="路径_76" data-name="路径 76" d="M92.519,96.479h0Z" fill="#48b0ff" stroke="#48b0ff" stroke-miterlimit="10" stroke-width="0.6"/>
    </g>
  </g>
</svg>
