<svg xmlns="http://www.w3.org/2000/svg" width="54" height="54" viewBox="0 0 54 54">
  <g id="雷雷风暴" transform="translate(-9 -302)">
    <rect id="矩形_21" data-name="矩形 21" width="54" height="54" rx="4" transform="translate(9 302)" fill="none"/>
    <g id="组_61" data-name="组 61" transform="translate(16.244 307.021)">
      <path id="路径_108" data-name="路径 108" d="M37.5,17.475h0a3,3,0,0,0-2.588-2.869l-.954-.134V13.1a.592.592,0,1,0-1.184,0v1.207l-9.208-1.276c-.283-.04-.569-.059-.853-.088V11.326a2.943,2.943,0,0,0-.592-1.758l2.226.556a.573.573,0,0,0,.141.018.592.592,0,0,0,.143-1.166l-3.1-.776V7.775a1.775,1.775,0,1,0-3.551,0V8.2l-3.1.776a.592.592,0,1,0,.286,1.148l2.215-.553a2.959,2.959,0,0,0-.582,1.755v1.618c-.284.03-.569.049-.853.088L6.737,14.309V13.1a.592.592,0,0,0-1.184,0v1.371l-.947.132a3,3,0,0,0-2.592,2.869v.008c0,.032-.009.063-.009.1a2.986,2.986,0,0,0,2.5,2.955l12.961,2.245.721,7.611-3.948,1.974a1.775,1.775,0,0,0-.994,1.6,1.8,1.8,0,0,0,1.545,1.771l3.711.444a.569.569,0,0,0,.07,0,.592.592,0,0,0,.418-.173l.173-.173v1.53a.592.592,0,0,0,1.184,0v-1.53l.173.173a.592.592,0,0,0,.418.173.57.57,0,0,0,.07,0l3.723-.446a1.786,1.786,0,0,0,.543-3.367l-3.952-1.978.724-7.613L35.01,20.531a2.988,2.988,0,0,0,2.5-2.956c0-.033-.008-.063-.009-.1Zm-18.338-9.7a.592.592,0,0,1,.592-.592.579.579,0,0,1,.422.181.571.571,0,0,1,.17.411v.13L19.9,7.793a.587.587,0,0,0-.286,0l-.449.112Zm-1.184,3.551a1.775,1.775,0,0,1,2.667-1.533,1.858,1.858,0,0,1,.362.273,1.786,1.786,0,0,1,.522,1.259v1.5a27.77,27.77,0,0,0-3.551,0ZM4.763,15.778l11.345-1.572a26.6,26.6,0,0,1,7.3,0l11.349,1.572a1.813,1.813,0,0,1,1.5,1.31L23.183,19.321a20.418,20.418,0,0,1-6.852,0L3.261,17.088a1.814,1.814,0,0,1,1.5-1.31Zm13.6,19.192-3.413-.408a.6.6,0,0,1-.515-.6.6.6,0,0,1,.336-.542l3.543-1.771.268,2.813a.592.592,0,0,0,.067.22Zm6.392-1.546a.6.6,0,0,1-.17,1.136l-3.425.41-.285-.285a.592.592,0,0,0,.067-.22l.268-2.813Zm-4.939.392H19.7l-1.03-10.83.982.17a.581.581,0,0,0,.2,0l.982-.17Zm15-14.452h0L19.757,21.97,4.7,19.363A1.8,1.8,0,0,1,3.344,18.3l12.788,2.184a21.571,21.571,0,0,0,3.626.308,21.545,21.545,0,0,0,3.62-.307L36.17,18.3A1.8,1.8,0,0,1,34.813,19.363Z" fill="#48b0ff"/>
      <rect id="矩形_39" data-name="矩形 39" width="1" height="11" transform="translate(4.756 22.979)" fill="#48b0ff"/>
      <rect id="矩形_40" data-name="矩形 40" width="1" height="11" transform="translate(9.756 22.979)" fill="#48b0ff"/>
      <rect id="矩形_41" data-name="矩形 41" width="1" height="8" transform="translate(7.756 23.979)" fill="#48b0ff"/>
      <rect id="矩形_42" data-name="矩形 42" width="1" height="4" transform="translate(11.756 23.979)" fill="#48b0ff"/>
      <rect id="矩形_43" data-name="矩形 43" width="1" height="11" transform="translate(33.756 22.979)" fill="#48b0ff"/>
      <rect id="矩形_44" data-name="矩形 44" width="1" height="11" transform="translate(28.756 22.979)" fill="#48b0ff"/>
      <rect id="矩形_45" data-name="矩形 45" width="1" height="8" transform="translate(30.756 23.979)" fill="#48b0ff"/>
      <rect id="矩形_46" data-name="矩形 46" width="1" height="4" transform="translate(26.756 23.979)" fill="#48b0ff"/>
      <path id="路径_109" data-name="路径 109" d="M29.678,24.377l1.1-.8,1.1.8-.419-1.29,1.1-.8H31.194L30.775,21l-.419,1.29H29l1.1.8Z" transform="translate(-11.018 -6.123)" fill="#48b0ff"/>
      <path id="路径_110" data-name="路径 110" d="M38.678,24.377l1.1-.8,1.1.8-.419-1.29,1.1-.8H40.194L39.775,21l-.419,1.29H38l1.1.8Z" transform="translate(-14.692 -6.123)" fill="#48b0ff"/>
      <path id="路径_111" data-name="路径 111" d="M20.678,24.377l1.1-.8,1.1.8-.419-1.29,1.1-.8H22.194L21.775,21l-.419,1.29H20l1.1.8Z" transform="translate(-7.345 -6.123)" fill="#48b0ff"/>
    </g>
  </g>
</svg>
