<svg xmlns="http://www.w3.org/2000/svg" width="54" height="54" viewBox="0 0 54 54">
  <g id="机器人竞猜" transform="translate(-9 -302)">
    <rect id="矩形_21" data-name="矩形 21" width="54" height="54" rx="4" transform="translate(9 302)" fill="none"/>
    <g id="组_62" data-name="组 62" transform="translate(8.676 298.558)">
      <path id="路径_112" data-name="路径 112" d="M42.618,33.068v-.15A15.173,15.173,0,0,0,36.61,20.889V19.03a3.368,3.368,0,0,0-3.365-3.365H21.4a3.369,3.369,0,0,0-3.365,3.365v1.859A15.172,15.172,0,0,0,12.03,32.918v.15H8.543V44.429H12.03v1.459H42.618V44.429H46.1V33.068ZM12.03,43.4H9.574V34.1H12.03v9.3ZM19.068,19.03A2.337,2.337,0,0,1,21.4,16.7H33.246A2.337,2.337,0,0,1,35.58,19.03v4.436A2.337,2.337,0,0,1,33.246,25.8H21.4a2.337,2.337,0,0,1-2.335-2.335V19.03ZM38.643,44.858H16V34.385H38.643V44.858Zm2.944,0H39.673v-11.5h-24.7v11.5H13.06V32.918a14.133,14.133,0,0,1,4.977-10.708v1.256A3.369,3.369,0,0,0,21.4,26.83H33.246a3.369,3.369,0,0,0,3.365-3.365V22.209a14.133,14.133,0,0,1,4.977,10.709v11.94ZM45.074,43.4H42.618V34.1h2.456Z" fill="#48b0ff"/>
      <path id="路径_113" data-name="路径 113" d="M39.115,25.94a2.982,2.982,0,0,1,0-4.218l-.728-.728a4.012,4.012,0,0,0,0,5.675Z" transform="translate(-13.899 -2.584)" fill="#48b0ff"/>
      <path id="路径_114" data-name="路径 114" d="M49.823,26.669a4.017,4.017,0,0,0,0-5.675l-.728.728a2.986,2.986,0,0,1,0,4.218Z" transform="translate(-19.661 -2.584)" fill="#48b0ff"/>
      <path id="路径_115" data-name="路径 115" d="M43.2,26.615a1.915,1.915,0,1,0-1.355-.56A1.91,1.91,0,0,0,43.2,26.615Zm-.626-2.541a.885.885,0,0,1,1.252,1.252.908.908,0,0,1-1.252,0A.887.887,0,0,1,42.572,24.075Z" transform="translate(-15.875 -3.453)" fill="#48b0ff"/>
      <path id="路径_116" data-name="路径 116" d="M28.964,57.687a.354.354,0,0,1,.639,0l.732,1.016a1.367,1.367,0,0,0,2.311,0l.732-1.017a.354.354,0,0,1,.639,0l.823,1.143a1.368,1.368,0,0,0,2.312,0l.823-1.143a.354.354,0,0,1,.639,0l.732,1.016a1.436,1.436,0,0,0,1.155.637h0a1.436,1.436,0,0,0,1.156-.637l.732-1.016a.354.354,0,0,1,.639,0l1.7,2.356.836-.6-1.7-2.356a1.437,1.437,0,0,0-1.156-.636h0a1.436,1.436,0,0,0-1.155.637L40.822,58.1a.349.349,0,0,1-.639,0l-.732-1.016a1.367,1.367,0,0,0-2.311,0l-.823,1.142a.355.355,0,0,1-.639,0l-.823-1.143a1.437,1.437,0,0,0-1.156-.636h0a1.437,1.437,0,0,0-1.155.636L31.81,58.1a.354.354,0,0,1-.639,0l-.732-1.016a1.367,1.367,0,0,0-2.311,0l-1.7,2.356.836.6Z" transform="translate(-8.673 -19.774)" fill="#48b0ff"/>
    </g>
  </g>
</svg>
