<svg xmlns="http://www.w3.org/2000/svg" width="54" height="54" viewBox="0 0 54 54">
  <g id="钱老板" transform="translate(-9 -302)">
    <rect id="矩形_21" data-name="矩形 21" width="54" height="54" rx="4" transform="translate(9 302)" fill="none"/>
    <g id="组_56" data-name="组 56" transform="translate(-194.797 -21.299)">
      <g id="组_41" data-name="组 41">
        <path id="路径_85" data-name="路径 85" d="M228.76,355.685h-9.673a.793.793,0,0,1-.792-.792l.052-2.026a4.125,4.125,0,0,1,3.3-3.947l3.932-.787a.653.653,0,0,1,.757.454Zm-3.056-7.023a.089.089,0,0,0-.023,0l-3.932.786a3.58,3.58,0,0,0-2.86,3.427l-.053,2.021a.25.25,0,0,0,.251.246h8.944l-2.216-6.4A.116.116,0,0,0,225.7,348.662Z" fill="#48b0ff" stroke="#48b0ff" stroke-miterlimit="10" stroke-width="0.5"/>
      </g>
      <g id="组_42" data-name="组 42">
        <path id="路径_86" data-name="路径 86" d="M241.4,355.685h-9.674l2.428-7.1a.655.655,0,0,1,.758-.454l3.932.787a4.124,4.124,0,0,1,3.3,3.947l.053,2.022A.794.794,0,0,1,241.4,355.685Zm-8.944-.541H241.4a.251.251,0,0,0,.251-.251l-.053-2.016a3.58,3.58,0,0,0-2.86-3.427l-3.932-.786a.118.118,0,0,0-.134.08Z" fill="#48b0ff" stroke="#48b0ff" stroke-miterlimit="10" stroke-width="0.5"/>
      </g>
      <g id="组_43" data-name="组 43">
        <rect id="矩形_34" data-name="矩形 34" width="2.164" height="2.164" rx="0.317" transform="translate(230.318 349) rotate(45)" fill="#48b0ff"/>
      </g>
      <g id="组_44" data-name="组 44">
        <path id="路径_87" data-name="路径 87" d="M229.607,351.17l-.964,4.512h3.23l-.9-4.647Z" fill="#48b0ff"/>
      </g>
      <path id="路径_88" data-name="路径 88" d="M239.3,366.259h-18.1a1.462,1.462,0,0,1-1.38-.981l-3.015-8.727a1.408,1.408,0,0,1,1.407-1.407h24.08a1.409,1.409,0,0,1,1.408,1.407l-.015.089-3,8.638A1.46,1.46,0,0,1,239.3,366.259Zm-21.958-9.751,2.984,8.592a.921.921,0,0,0,.869.618h18.1a.919.919,0,0,0,.868-.618l2.985-8.592a.868.868,0,0,0-.866-.823H218.2A.868.868,0,0,0,217.339,356.508Z" fill="#48b0ff" stroke="#48b0ff" stroke-miterlimit="10" stroke-width="0.5"/>
      <g id="组_49" data-name="组 49">
        <g id="组_45" data-name="组 45">
          <path id="路径_89" data-name="路径 89" d="M222.708,363.156v-4.911H224a1.313,1.313,0,0,1,.92.312,1.064,1.064,0,0,1,.342.826,1.191,1.191,0,0,1-.862,1.186v.012a1.205,1.205,0,0,1,.805.365,1.134,1.134,0,0,1,.295.8,1.355,1.355,0,0,1-.4,1.013,1.466,1.466,0,0,1-1.07.392Zm.339-4.6v1.9h.685a1.275,1.275,0,0,0,.855-.275.925.925,0,0,0,.321-.743q0-.882-1.043-.882Zm0,2.207v2.083h.91a1.277,1.277,0,0,0,.885-.277,1.007,1.007,0,0,0,.307-.788q0-1.018-1.379-1.018Z" fill="#48b0ff" stroke="#48b0ff" stroke-miterlimit="10" stroke-width="0.5"/>
          <path id="路径_90" data-name="路径 90" d="M224.027,363.237h-1.4v-5.074H224a1.4,1.4,0,0,1,.975.334,1.148,1.148,0,0,1,.368.886,1.309,1.309,0,0,1-.242.788,1.241,1.241,0,0,1-.435.373,1.182,1.182,0,0,1,.915,1.207,1.437,1.437,0,0,1-.425,1.071A1.548,1.548,0,0,1,224.027,363.237Zm-1.238-.163h1.238a1.39,1.39,0,0,0,1.013-.368,1.28,1.28,0,0,0,.377-.955,1.048,1.048,0,0,0-.273-.75,1.138,1.138,0,0,0-.754-.339l-.073-.007v-.133l.056-.031a1.109,1.109,0,0,0,.806-1.108.978.978,0,0,0-.316-.766,1.242,1.242,0,0,0-.865-.291h-1.209Zm1.168-.144h-.991v-2.246h.8c.969,0,1.46.37,1.46,1.1a1.088,1.088,0,0,1-.334.848A1.359,1.359,0,0,1,223.957,362.93Zm-.829-.163h.829a1.206,1.206,0,0,0,.83-.256.923.923,0,0,0,.281-.728c0-.63-.424-.936-1.3-.936h-.642Zm.6-2.228h-.766v-2.062h.9c.929,0,1.124.524,1.124.963a1.006,1.006,0,0,1-.35.8A1.355,1.355,0,0,1,223.732,360.539Zm-.6-.163h.6a1.2,1.2,0,0,0,.8-.254.842.842,0,0,0,.293-.682c0-.539-.314-.8-.962-.8h-.737Z" fill="#48b0ff" stroke="#48b0ff" stroke-miterlimit="10" stroke-width="0.5"/>
        </g>
        <g id="组_46" data-name="组 46">
          <path id="路径_91" data-name="路径 91" d="M228.542,363.241a2.113,2.113,0,0,1-1.658-.691,2.592,2.592,0,0,1-.619-1.8,2.719,2.719,0,0,1,.634-1.883,2.214,2.214,0,0,1,1.735-.707,2.066,2.066,0,0,1,1.607.68,2.559,2.559,0,0,1,.615,1.784,2.757,2.757,0,0,1-.629,1.916A2.156,2.156,0,0,1,228.542,363.241Zm.035-4.768a1.8,1.8,0,0,0-1.41.62,2.345,2.345,0,0,0-.553,1.621,2.374,2.374,0,0,0,.523,1.616,1.763,1.763,0,0,0,1.4.6,1.836,1.836,0,0,0,1.441-.6,2.394,2.394,0,0,0,.532-1.656,2.359,2.359,0,0,0-.519-1.624A1.791,1.791,0,0,0,228.577,358.473Z" fill="#48b0ff" stroke="#48b0ff" stroke-miterlimit="10" stroke-width="0.5"/>
          <path id="路径_92" data-name="路径 92" d="M228.542,363.323a2.2,2.2,0,0,1-1.719-.719,2.684,2.684,0,0,1-.639-1.851,2.807,2.807,0,0,1,.655-1.938,2.3,2.3,0,0,1,1.795-.734,2.151,2.151,0,0,1,1.667.707,2.645,2.645,0,0,1,.636,1.838,2.85,2.85,0,0,1-.65,1.971A2.244,2.244,0,0,1,228.542,363.323Zm.092-5.079a2.14,2.14,0,0,0-1.674.68,2.647,2.647,0,0,0-.614,1.829,2.525,2.525,0,0,0,.6,1.743,2.045,2.045,0,0,0,1.6.664,2.089,2.089,0,0,0,1.625-.672,2.7,2.7,0,0,0,.608-1.862,2.49,2.49,0,0,0-.594-1.729A1.994,1.994,0,0,0,228.634,358.244Zm-.1,4.768a1.846,1.846,0,0,1-1.459-.629,2.464,2.464,0,0,1-.543-1.669,2.429,2.429,0,0,1,.574-1.675A2.037,2.037,0,0,1,230.05,359a2.453,2.453,0,0,1,.539,1.678,2.486,2.486,0,0,1-.552,1.71A1.919,1.919,0,0,1,228.535,363.012Zm.042-4.458a1.733,1.733,0,0,0-1.349.593,2.272,2.272,0,0,0-.533,1.567,2.3,2.3,0,0,0,.5,1.562,1.686,1.686,0,0,0,1.336.573,1.763,1.763,0,0,0,1.381-.567,2.33,2.33,0,0,0,.51-1.6,2.291,2.291,0,0,0-.5-1.57A1.722,1.722,0,0,0,228.577,358.554Z" fill="#48b0ff" stroke="#48b0ff" stroke-miterlimit="10" stroke-width="0.5"/>
        </g>
        <g id="组_47" data-name="组 47">
          <path id="路径_93" data-name="路径 93" d="M231.706,362.981V362.6a1.966,1.966,0,0,0,1.068.336,1.377,1.377,0,0,0,.874-.238.805.805,0,0,0,.3-.666.873.873,0,0,0-.2-.6,3.936,3.936,0,0,0-.869-.612,3.061,3.061,0,0,1-.943-.728,1.179,1.179,0,0,1-.2-.677,1.141,1.141,0,0,1,.4-.883,1.549,1.549,0,0,1,1.076-.363,2.713,2.713,0,0,1,.878.149v.355a2.225,2.225,0,0,0-.922-.193,1.171,1.171,0,0,0-.791.252.811.811,0,0,0-.294.645.864.864,0,0,0,.2.6,3.915,3.915,0,0,0,.866.607,3.1,3.1,0,0,1,.916.693,1.126,1.126,0,0,1,.228.7,1.188,1.188,0,0,1-.393.921,1.591,1.591,0,0,1-1.106.356,2.543,2.543,0,0,1-.585-.079A1.92,1.92,0,0,1,231.706,362.981Z" fill="#48b0ff" stroke="#48b0ff" stroke-miterlimit="10" stroke-width="0.5"/>
          <path id="路径_94" data-name="路径 94" d="M232.8,363.323a2.65,2.65,0,0,1-.6-.082,1.991,1.991,0,0,1-.528-.189l-.04-.024v-.581l.125.079a1.889,1.889,0,0,0,1.024.323,1.3,1.3,0,0,0,.823-.22.72.72,0,0,0,.266-.6.8.8,0,0,0-.179-.548,3.842,3.842,0,0,0-.849-.6,3.131,3.131,0,0,1-.97-.752,1.275,1.275,0,0,1-.212-.723,1.223,1.223,0,0,1,.432-.943,1.632,1.632,0,0,1,1.13-.384,2.8,2.8,0,0,1,.9.154l.054.018v.539l-.114-.052a2.166,2.166,0,0,0-.889-.186,1.1,1.1,0,0,0-.738.232.729.729,0,0,0-.265.584.789.789,0,0,0,.179.544,3.9,3.9,0,0,0,.845.591,3.139,3.139,0,0,1,.941.714,1.211,1.211,0,0,1,.244.745,1.272,1.272,0,0,1-.419.981A1.677,1.677,0,0,1,232.8,363.323Zm-1.01-.39a2.055,2.055,0,0,0,.443.15,2.5,2.5,0,0,0,.567.077,1.519,1.519,0,0,0,1.052-.336,1.1,1.1,0,0,0,.366-.86,1.052,1.052,0,0,0-.212-.648,3.041,3.041,0,0,0-.891-.67,3.928,3.928,0,0,1-.886-.624.943.943,0,0,1-.221-.652.891.891,0,0,1,.322-.706,1.252,1.252,0,0,1,.844-.272,2.323,2.323,0,0,1,.841.153v-.175a2.627,2.627,0,0,0-.8-.126,1.484,1.484,0,0,0-1.022.341,1.059,1.059,0,0,0-.377.823,1.108,1.108,0,0,0,.184.632,3.007,3.007,0,0,0,.917.7,3.934,3.934,0,0,1,.888.629.953.953,0,0,1,.22.656.885.885,0,0,1-.326.729,1.456,1.456,0,0,1-.925.256,2,2,0,0,1-.987-.274Z" fill="#48b0ff" stroke="#48b0ff" stroke-miterlimit="10" stroke-width="0.5"/>
        </g>
        <g id="组_48" data-name="组 48">
          <path id="路径_95" data-name="路径 95" d="M235.19,362.981V362.6a1.967,1.967,0,0,0,1.069.336,1.372,1.372,0,0,0,.873-.238.806.806,0,0,0,.3-.666.873.873,0,0,0-.2-.6,3.911,3.911,0,0,0-.869-.612,3.074,3.074,0,0,1-.943-.728,1.179,1.179,0,0,1-.2-.677,1.144,1.144,0,0,1,.4-.883,1.553,1.553,0,0,1,1.077-.363,2.722,2.722,0,0,1,.878.149v.355a2.229,2.229,0,0,0-.923-.193,1.173,1.173,0,0,0-.791.252.814.814,0,0,0-.293.645.86.86,0,0,0,.2.6,3.9,3.9,0,0,0,.865.607,3.087,3.087,0,0,1,.916.693,1.121,1.121,0,0,1,.229.7,1.188,1.188,0,0,1-.393.921,1.592,1.592,0,0,1-1.107.356,2.543,2.543,0,0,1-.585-.079A1.934,1.934,0,0,1,235.19,362.981Z" fill="#48b0ff" stroke="#48b0ff" stroke-miterlimit="10" stroke-width="0.5"/>
          <path id="路径_96" data-name="路径 96" d="M236.281,363.323a2.649,2.649,0,0,1-.6-.082,1.982,1.982,0,0,1-.527-.189l-.041-.024v-.581l.125.079a1.892,1.892,0,0,0,1.025.323,1.3,1.3,0,0,0,.823-.22.723.723,0,0,0,.266-.6.8.8,0,0,0-.18-.548,3.854,3.854,0,0,0-.848-.6,3.106,3.106,0,0,1-.97-.752,1.267,1.267,0,0,1-.212-.723,1.226,1.226,0,0,1,.431-.943,1.635,1.635,0,0,1,1.131-.384,2.8,2.8,0,0,1,.9.154l.055.018v.539l-.114-.052a2.171,2.171,0,0,0-.89-.186,1.1,1.1,0,0,0-.738.232.732.732,0,0,0-.265.584.789.789,0,0,0,.179.544,3.884,3.884,0,0,0,.846.591,3.132,3.132,0,0,1,.94.714,1.205,1.205,0,0,1,.245.745,1.269,1.269,0,0,1-.42.981A1.676,1.676,0,0,1,236.281,363.323Zm-1.009-.39a2.055,2.055,0,0,0,.443.15,2.493,2.493,0,0,0,.566.077,1.515,1.515,0,0,0,1.052-.336,1.1,1.1,0,0,0,.367-.86,1.058,1.058,0,0,0-.212-.648,3.063,3.063,0,0,0-.892-.67,3.927,3.927,0,0,1-.886-.624.947.947,0,0,1-.22-.652.893.893,0,0,1,.321-.706,1.253,1.253,0,0,1,.844-.272,2.328,2.328,0,0,1,.842.153v-.175a2.631,2.631,0,0,0-.8-.126,1.485,1.485,0,0,0-1.023.341,1.059,1.059,0,0,0-.377.823,1.108,1.108,0,0,0,.184.632,3.034,3.034,0,0,0,.917.7,3.923,3.923,0,0,1,.889.629.958.958,0,0,1,.22.656.886.886,0,0,1-.327.729,1.451,1.451,0,0,1-.924.256,2,2,0,0,1-.987-.274Z" fill="#48b0ff" stroke="#48b0ff" stroke-miterlimit="10" stroke-width="0.5"/>
        </g>
      </g>
      <g id="组_50" data-name="组 50">
        <path id="路径_97" data-name="路径 97" d="M230.225,336a1.352,1.352,0,1,1,1.352-1.353A1.355,1.355,0,0,1,230.225,336Zm0-2.164a.812.812,0,1,0,.811.811A.812.812,0,0,0,230.225,333.84Z" fill="#48b0ff" stroke="#48b0ff" stroke-miterlimit="10" stroke-width="0.5"/>
      </g>
      <g id="组_51" data-name="组 51">
        <rect id="矩形_35" data-name="矩形 35" width="0.541" height="1.444" transform="translate(229.954 335.611)" fill="#48b0ff" stroke="#48b0ff" stroke-miterlimit="10" stroke-width="0.5"/>
      </g>
      <g id="组_52" data-name="组 52">
        <path id="路径_98" data-name="路径 98" d="M235.708,346.535H224.734a.558.558,0,0,1-.557-.557v-8.57a.558.558,0,0,1,.557-.557h10.974a.558.558,0,0,1,.557.557v8.57A.558.558,0,0,1,235.708,346.535Zm-10.974-9.143-.016,8.586,10.99.015a.016.016,0,0,0,.016-.015v-8.57Z" fill="#48b0ff" stroke="#48b0ff" stroke-miterlimit="10" stroke-width="0.5"/>
      </g>
      <g id="组_53" data-name="组 53">
        <path id="路径_99" data-name="路径 99" d="M227.677,341.9a1.443,1.443,0,1,1,1.443-1.442A1.444,1.444,0,0,1,227.677,341.9Zm0-2.344a.9.9,0,1,0,.9.9A.9.9,0,0,0,227.677,339.559Z" fill="#48b0ff" stroke="#48b0ff" stroke-miterlimit="10" stroke-width="0.5"/>
      </g>
      <g id="组_54" data-name="组 54">
        <path id="路径_100" data-name="路径 100" d="M232.707,341.9a1.443,1.443,0,1,1,1.443-1.442A1.444,1.444,0,0,1,232.707,341.9Zm0-2.344a.9.9,0,1,0,.9.9A.9.9,0,0,0,232.707,339.559Z" fill="#48b0ff" stroke="#48b0ff" stroke-miterlimit="10" stroke-width="0.5"/>
      </g>
      <g id="组_55" data-name="组 55">
        <path id="路径_101" data-name="路径 101" d="M231.8,344.965h-3.151a.842.842,0,0,1-.841-.841.271.271,0,0,1,.541,0,.3.3,0,0,0,.3.3H231.8a.3.3,0,0,0,.3-.3.271.271,0,0,1,.541,0A.842.842,0,0,1,231.8,344.965Z" fill="#48b0ff" stroke="#48b0ff" stroke-miterlimit="10" stroke-width="0.5"/>
      </g>
      <path id="路径_102" data-name="路径 102" d="M224.516,343.284h-.858a.27.27,0,0,1-.27-.27v-2.445a.27.27,0,0,1,.27-.27l.858.012v-.553h-.858a.813.813,0,0,0-.812.811v2.445a.813.813,0,0,0,.812.811h.858Z" fill="#48b0ff" stroke="#48b0ff" stroke-miterlimit="10" stroke-width="0.5"/>
      <path id="路径_103" data-name="路径 103" d="M236.83,339.758H236v.541h.829a.272.272,0,0,1,.271.271v2.442a.272.272,0,0,1-.271.272H236v.541h.829a.813.813,0,0,0,.812-.813V340.57A.813.813,0,0,0,236.83,339.758Z" fill="#48b0ff" stroke="#48b0ff" stroke-miterlimit="10" stroke-width="0.5"/>
    </g>
  </g>
</svg>
